<?xml version="1.0" encoding="UTF-8" ?>
<!DOCTYPE svg PUBLIC "-//W3C//DTD SVG 1.1//EN" "http://www.w3.org/Graphics/SVG/1.1/DTD/svg11.dtd">
<svg width="100pt" height="161pt" viewBox="0 0 100 161" version="1.1" xmlns="http://www.w3.org/2000/svg">
<path fill="#3d5e85" opacity="1.00" d=" M 26.68 7.64 C 36.82 1.48 49.38 -0.05 60.89 2.39 C 75.19 5.62 87.83 15.79 93.61 29.32 C 99.06 41.36 99.16 55.62 93.76 67.70 C 79.47 98.30 64.61 128.65 50.58 159.37 C 48.66 156.17 47.23 152.71 45.63 149.34 C 33.03 122.64 20.35 95.98 7.70 69.29 C 2.43 58.48 1.41 45.62 5.21 34.17 C 8.72 23.05 16.58 13.43 26.68 7.64 M 46.43 6.59 C 36.33 7.56 26.61 12.23 19.67 19.66 C 10.05 29.63 5.86 44.60 9.21 58.09 C 12.95 75.14 28.20 88.79 45.55 90.65 C 58.65 92.16 72.35 86.97 81.28 77.27 C 89.53 68.53 93.78 56.11 92.29 44.14 C 91.13 33.03 85.35 22.47 76.57 15.55 C 68.17 8.87 57.13 5.46 46.43 6.59 Z" />
<path fill="#77f2f0" opacity="1.00" d=" M 46.43 6.59 C 57.13 5.46 68.17 8.87 76.57 15.55 C 85.35 22.47 91.13 33.03 92.29 44.14 C 93.78 56.11 89.53 68.53 81.28 77.27 C 72.35 86.97 58.65 92.16 45.55 90.65 C 28.20 88.79 12.95 75.14 9.21 58.09 C 5.86 44.60 10.05 29.63 19.67 19.66 C 26.61 12.23 36.33 7.56 46.43 6.59 M 40.13 23.83 C 38.84 25.21 36.79 26.69 37.42 28.87 C 37.73 32.16 42.13 34.18 44.62 31.79 C 46.78 30.65 45.94 27.99 46.11 26.03 C 44.52 24.36 42.40 23.74 40.13 23.83 M 66.40 28.35 C 63.18 30.41 62.40 34.43 62.18 37.98 C 64.57 35.32 66.66 32.19 70.04 30.70 C 67.61 33.69 64.62 36.30 62.89 39.81 C 62.15 41.05 62.15 42.53 62.72 43.85 C 63.37 42.77 63.98 41.68 64.54 40.56 C 67.68 40.12 71.11 39.90 73.64 37.76 C 77.61 34.49 78.57 28.95 78.66 24.09 C 74.55 25.39 70.12 26.03 66.40 28.35 M 38.23 37.06 C 38.28 41.15 37.67 45.40 38.62 49.41 C 41.51 53.42 46.91 54.47 50.54 57.72 C 48.94 58.59 47.30 59.40 45.63 60.13 C 44.18 56.58 40.94 53.78 37.10 53.24 C 30.88 52.11 24.38 57.60 24.75 63.98 C 24.23 71.26 32.66 77.03 39.29 74.15 C 44.18 72.55 46.74 67.34 46.38 62.41 C 47.72 61.78 49.07 61.15 50.42 60.52 C 50.30 63.32 50.16 66.12 50.01 68.92 C 50.50 69.18 51.49 69.72 51.99 69.99 C 54.24 64.58 53.15 57.80 57.57 53.42 C 58.01 54.58 58.44 55.75 58.87 56.92 C 56.80 59.76 55.62 63.45 56.80 66.91 C 58.27 73.16 66.02 76.78 71.75 73.87 C 78.29 71.23 80.29 61.76 75.30 56.73 C 71.58 52.24 65.00 52.27 60.29 55.10 C 59.22 51.87 58.53 48.51 58.56 45.10 C 56.27 44.49 53.89 44.21 51.66 43.43 C 48.79 40.54 46.90 36.78 43.83 34.07 C 41.51 33.18 38.34 34.29 38.23 37.06 M 59.96 44.97 C 60.34 47.41 61.01 49.80 62.09 52.02 C 64.70 51.98 67.31 51.95 69.92 51.88 C 70.66 49.62 71.23 47.29 71.41 44.91 C 67.60 44.92 63.78 44.90 59.96 44.97 Z" />
<path fill="#3d5e85" opacity="1.00" d=" M 40.13 23.83 C 42.40 23.74 44.52 24.36 46.11 26.03 C 45.94 27.99 46.78 30.65 44.62 31.79 C 42.13 34.18 37.73 32.16 37.42 28.87 C 36.79 26.69 38.84 25.21 40.13 23.83 Z" />
<path fill="#3d5e85" opacity="1.00" d=" M 66.40 28.35 C 70.12 26.03 74.55 25.39 78.66 24.09 C 78.57 28.95 77.61 34.49 73.64 37.76 C 71.11 39.90 67.68 40.12 64.54 40.56 C 63.98 41.68 63.37 42.77 62.72 43.85 C 62.15 42.53 62.15 41.05 62.89 39.81 C 64.62 36.30 67.61 33.69 70.04 30.70 C 66.66 32.19 64.57 35.32 62.18 37.98 C 62.40 34.43 63.18 30.41 66.40 28.35 Z" />
<path fill="#3d5e85" opacity="1.00" d=" M 38.23 37.06 C 38.34 34.29 41.51 33.18 43.83 34.07 C 46.90 36.78 48.79 40.54 51.66 43.43 C 53.89 44.21 56.27 44.49 58.56 45.10 C 58.53 48.51 59.22 51.87 60.29 55.10 C 65.00 52.27 71.58 52.24 75.30 56.73 C 80.29 61.76 78.29 71.23 71.75 73.87 C 66.02 76.78 58.27 73.16 56.80 66.91 C 55.62 63.45 56.80 59.76 58.87 56.92 C 58.44 55.75 58.01 54.58 57.57 53.42 C 53.15 57.80 54.24 64.58 51.99 69.99 C 51.49 69.72 50.50 69.18 50.01 68.92 C 50.16 66.12 50.30 63.32 50.42 60.52 C 49.07 61.15 47.72 61.78 46.38 62.41 C 46.74 67.34 44.18 72.55 39.29 74.15 C 32.66 77.03 24.23 71.26 24.75 63.98 C 24.38 57.60 30.88 52.11 37.10 53.24 C 40.94 53.78 44.18 56.58 45.63 60.13 C 47.30 59.40 48.94 58.59 50.54 57.72 C 46.91 54.47 41.51 53.42 38.62 49.41 C 37.67 45.40 38.28 41.15 38.23 37.06 M 45.02 42.95 C 45.05 44.18 45.08 45.42 45.12 46.66 C 48.47 48.73 51.57 51.16 54.86 53.31 C 55.79 51.33 56.30 49.21 56.56 47.05 C 54.20 47.07 51.84 47.07 49.48 46.99 C 48.07 45.57 46.58 44.22 45.02 42.95 M 29.11 58.20 C 24.81 62.48 27.10 70.76 33.02 72.16 C 38.64 74.11 44.72 68.97 44.07 63.15 C 40.76 64.12 37.39 65.31 33.88 64.85 C 34.03 64.48 34.35 63.73 34.50 63.36 C 37.43 62.30 40.56 61.92 43.54 61.03 C 41.54 55.19 33.15 53.57 29.11 58.20 M 61.72 57.20 C 63.52 59.89 66.15 61.79 68.55 63.89 L 68.03 65.03 C 64.44 64.96 62.35 61.31 60.09 58.96 C 57.07 63.71 59.28 70.90 64.99 72.20 C 71.44 74.36 78.19 66.87 75.18 60.73 C 73.13 55.46 66.15 54.00 61.72 57.20 Z" />
<path fill="#77f2f0" opacity="1.00" d=" M 45.02 42.95 C 46.58 44.22 48.07 45.57 49.48 46.99 C 51.84 47.07 54.20 47.07 56.56 47.05 C 56.30 49.21 55.79 51.33 54.86 53.31 C 51.57 51.16 48.47 48.73 45.12 46.66 C 45.08 45.42 45.05 44.18 45.02 42.95 Z" />
<path fill="#3d5e85" opacity="1.00" d=" M 59.96 44.97 C 63.78 44.90 67.60 44.92 71.41 44.91 C 71.23 47.29 70.66 49.62 69.92 51.88 C 67.31 51.95 64.70 51.98 62.09 52.02 C 61.01 49.80 60.34 47.41 59.96 44.97 Z" />
<path fill="#77f2f0" opacity="1.00" d=" M 29.11 58.20 C 33.15 53.57 41.54 55.19 43.54 61.03 C 40.56 61.92 37.43 62.30 34.50 63.36 C 34.35 63.73 34.03 64.48 33.88 64.85 C 37.39 65.31 40.76 64.12 44.07 63.15 C 44.72 68.97 38.64 74.11 33.02 72.16 C 27.10 70.76 24.81 62.48 29.11 58.20 Z" />
<path fill="#77f2f0" opacity="1.00" d=" M 61.72 57.20 C 66.15 54.00 73.13 55.46 75.18 60.73 C 78.19 66.87 71.44 74.36 64.99 72.20 C 59.28 70.90 57.07 63.71 60.09 58.96 C 62.35 61.31 64.44 64.96 68.03 65.03 L 68.55 63.89 C 66.15 61.79 63.52 59.89 61.72 57.20 Z" />
</svg>
