<?xml version="1.0" encoding="UTF-8" ?>
<!DOCTYPE svg PUBLIC "-//W3C//DTD SVG 1.1//EN" "http://www.w3.org/Graphics/SVG/1.1/DTD/svg11.dtd">
<svg width="1667pt" height="701pt" viewBox="0 0 1667 701" version="1.1" xmlns="http://www.w3.org/2000/svg">
<path fill="#3e5c86" opacity="1.00" d=" M 348.98 130.82 C 370.42 126.93 393.08 128.31 413.35 136.62 C 430.02 143.60 445.52 153.97 457.19 167.88 C 473.29 186.51 482.68 210.56 484.51 235.03 C 484.40 240.64 484.62 246.27 484.47 251.89 C 483.04 265.02 479.59 277.97 474.17 290.02 C 440.14 362.29 405.64 434.34 371.93 506.76 C 369.81 505.44 369.29 502.84 368.21 500.77 C 339.12 438.93 309.84 377.17 280.61 315.39 C 274.75 302.47 267.78 290.01 263.34 276.49 C 258.59 261.84 257.28 246.25 258.49 230.94 C 261.14 205.18 272.73 180.40 291.06 162.07 C 306.91 146.53 327.08 135.00 348.98 130.82 M 359.57 141.79 C 336.66 144.47 314.82 155.27 298.82 171.89 C 283.01 188.34 272.57 210.18 270.93 233.04 C 268.59 255.42 274.63 278.35 286.82 297.18 C 301.53 320.15 326.03 336.62 352.84 341.63 C 370.78 345.21 389.56 343.00 406.64 336.69 C 435.09 326.15 458.12 302.04 467.39 273.16 C 474.03 253.11 473.69 230.99 467.16 210.96 C 458.84 184.75 439.21 162.40 414.33 150.71 C 397.39 142.74 378.17 139.24 359.57 141.79 Z" />
<path fill="#77f2f0" opacity="1.00" d=" M 359.57 141.79 C 378.17 139.24 397.39 142.74 414.33 150.71 C 439.21 162.40 458.84 184.75 467.16 210.96 C 473.69 230.99 474.03 253.11 467.39 273.16 C 458.12 302.04 435.09 326.15 406.64 336.69 C 389.56 343.00 370.78 345.21 352.84 341.63 C 326.03 336.62 301.53 320.15 286.82 297.18 C 274.63 278.35 268.59 255.42 270.93 233.04 C 272.57 210.18 283.01 188.34 298.82 171.89 C 314.82 155.27 336.66 144.47 359.57 141.79 M 347.32 183.51 C 345.80 184.14 344.42 185.07 343.26 186.24 C 337.71 191.10 340.54 201.74 347.59 203.54 C 354.47 206.54 363.31 199.50 361.43 192.07 C 361.34 185.32 353.21 180.94 347.32 183.51 M 422.75 187.84 C 416.61 189.72 410.14 191.93 405.76 196.87 C 401.40 202.29 399.16 209.50 400.36 216.43 C 406.03 209.34 411.99 201.90 420.48 198.09 C 414.83 202.52 410.00 207.89 405.69 213.60 C 402.37 218.39 398.37 223.88 400.19 230.07 C 403.46 229.45 403.85 225.93 404.44 223.24 C 410.89 222.01 417.79 221.92 423.62 218.56 C 429.84 215.16 434.18 208.98 436.20 202.28 C 437.91 196.26 439.47 190.09 439.27 183.78 C 433.60 184.38 428.20 186.27 422.75 187.84 M 342.41 214.89 C 342.35 223.29 342.35 231.69 342.41 240.08 C 342.45 244.31 345.49 247.89 349.02 249.89 C 356.58 254.34 364.23 258.64 371.70 263.24 C 368.20 266.01 364.33 268.34 360.02 269.56 C 356.27 259.51 345.70 252.38 334.91 253.10 C 327.66 253.04 320.77 256.66 316.15 262.14 C 307.24 272.04 308.14 289.02 318.08 297.91 C 325.67 305.20 337.87 307.01 347.28 302.30 C 353.70 299.41 358.44 293.52 360.59 286.88 C 362.05 283.12 361.29 279.03 361.84 275.12 C 365.15 273.82 368.33 272.20 371.38 270.38 C 371.57 276.61 370.97 282.82 370.84 289.03 C 370.23 292.22 375.62 294.03 376.38 290.58 C 378.47 281.49 380.14 272.29 382.10 263.16 C 383.42 259.61 386.06 256.75 388.30 253.75 C 389.35 256.62 390.56 259.43 391.85 262.21 C 381.34 273.62 384.93 294.16 398.64 301.37 C 411.19 309.28 430.15 303.42 435.40 289.35 C 442.67 275.39 432.73 256.51 417.51 253.65 C 410.13 251.21 402.20 253.88 395.92 257.92 C 392.10 250.33 390.72 241.79 390.84 233.35 C 385.39 232.52 380.12 230.76 374.62 230.27 C 368.64 223.25 363.60 215.45 357.39 208.61 C 352.49 203.44 341.96 207.61 342.41 214.89 M 396.13 233.09 C 393.61 234.83 395.27 237.94 395.82 240.26 C 396.95 243.33 396.81 247.16 399.37 249.52 C 405.63 250.32 412.05 250.08 418.34 249.47 C 419.53 244.67 421.10 239.97 422.02 235.10 C 421.38 234.40 420.76 233.69 420.14 232.99 C 412.13 233.21 404.12 232.93 396.13 233.09 Z" />
<path fill="#3e5c86" opacity="1.00" d=" M 842.09 170.38 C 848.83 170.33 855.57 170.41 862.31 170.33 C 862.79 219.22 862.37 268.12 862.51 317.01 C 862.52 350.50 862.55 384.00 862.47 417.49 C 855.69 417.43 848.90 417.63 842.12 417.34 C 841.82 335.02 841.80 252.70 842.09 170.38 Z" />
<path fill="#3e5c86" opacity="1.00" d=" M 883.74 170.41 C 890.46 170.32 897.18 170.36 903.90 170.32 C 904.89 196.20 903.61 222.07 903.96 247.95 C 903.66 286.62 904.57 325.27 904.23 363.94 C 903.43 381.70 904.41 399.48 904.23 417.25 C 897.43 417.21 890.64 417.60 883.84 417.54 C 883.59 335.16 883.79 252.78 883.74 170.41 Z" />
<path fill="#22b14c" opacity="1.00" d=" M 1223.05 170.32 C 1229.88 170.56 1236.74 170.08 1243.56 170.75 C 1243.17 252.98 1243.31 335.21 1243.51 417.44 C 1236.19 411.84 1229.69 405.26 1223.07 398.87 C 1222.37 397.98 1221.61 397.90 1220.80 398.64 C 1208.70 409.19 1194.21 417.60 1178.19 420.18 C 1150.74 425.04 1121.66 413.21 1104.07 391.89 C 1080.40 363.85 1080.90 318.13 1106.37 291.38 C 1125.21 270.43 1155.64 260.46 1183.12 267.23 C 1198.38 270.45 1211.58 279.43 1223.03 289.69 C 1222.61 261.47 1222.90 233.24 1222.83 205.02 C 1222.94 193.45 1222.53 181.88 1223.05 170.32 M 1155.50 285.69 C 1139.13 288.34 1124.01 298.23 1115.34 312.41 C 1105.84 328.01 1104.37 348.04 1110.91 365.04 C 1115.30 377.13 1124.47 387.18 1135.57 393.52 C 1149.66 401.70 1167.19 403.55 1182.73 398.70 C 1198.36 393.89 1211.25 381.76 1218.04 366.99 C 1227.93 346.19 1223.56 319.20 1206.91 303.10 C 1193.77 289.77 1174.15 282.39 1155.50 285.69 Z" />
<path fill="#22b14c" opacity="1.00" d=" M 1422.39 170.42 C 1429.08 170.42 1435.80 170.12 1442.48 170.86 C 1441.98 184.69 1442.38 198.53 1441.93 212.35 C 1440.43 222.17 1441.18 232.13 1440.99 242.02 C 1441.03 261.66 1441.01 281.31 1441.02 300.95 C 1441.28 308.98 1440.35 317.06 1441.53 325.04 C 1441.85 339.68 1441.56 354.34 1441.67 368.99 C 1442.43 385.01 1442.12 401.06 1442.30 417.09 C 1435.66 417.33 1429.03 417.43 1422.39 417.46 C 1422.14 335.12 1422.22 252.77 1422.39 170.42 Z" />
<path fill="#3e5c86" opacity="1.00" d=" M 521.24 170.94 C 528.11 170.19 535.02 170.51 541.91 170.14 C 542.79 196.35 541.04 222.60 542.80 248.79 C 571.12 247.95 599.48 248.69 627.81 248.40 C 628.63 222.41 627.82 196.41 628.23 170.42 C 634.97 170.28 641.72 170.45 648.47 170.31 C 648.68 252.62 648.63 334.94 648.48 417.26 C 641.58 417.64 634.66 417.42 627.78 416.89 C 628.40 367.56 628.33 318.22 627.85 268.88 C 599.21 269.01 570.57 268.50 541.95 269.15 C 542.34 318.48 541.97 367.82 542.18 417.16 C 535.38 418.07 528.51 417.03 521.67 417.22 C 521.23 395.84 521.45 374.45 521.40 353.06 C 521.40 325.09 521.33 297.13 521.48 269.16 C 511.62 269.02 501.77 268.57 491.91 268.90 C 495.17 261.79 499.24 255.09 503.90 248.82 C 509.74 248.22 515.60 248.44 521.46 248.43 C 521.35 222.61 521.53 196.77 521.24 170.94 Z" />
<path fill="#3e5c86" opacity="1.00" d=" M 347.32 183.51 C 353.21 180.94 361.34 185.32 361.43 192.07 C 363.31 199.50 354.47 206.54 347.59 203.54 C 340.54 201.74 337.71 191.10 343.26 186.24 C 344.42 185.07 345.80 184.14 347.32 183.51 Z" />
<path fill="#22b14c" opacity="1.00" d=" M 422.75 187.84 C 428.20 186.27 433.60 184.38 439.27 183.78 C 439.47 190.09 437.91 196.26 436.20 202.28 C 434.18 208.98 429.84 215.16 423.62 218.56 C 417.79 221.92 410.89 222.01 404.44 223.24 C 403.85 225.93 403.46 229.45 400.19 230.07 C 398.37 223.88 402.37 218.39 405.69 213.60 C 410.00 207.89 414.83 202.52 420.48 198.09 C 411.99 201.90 406.03 209.34 400.36 216.43 C 399.16 209.50 401.40 202.29 405.76 196.87 C 410.14 191.93 416.61 189.72 422.75 187.84 Z" />
<path fill="#3e5c86" opacity="1.00" d=" M 342.41 214.89 C 341.96 207.61 352.49 203.44 357.39 208.61 C 363.60 215.45 368.64 223.25 374.62 230.27 C 380.12 230.76 385.39 232.52 390.84 233.35 C 390.72 241.79 392.10 250.33 395.92 257.92 C 402.20 253.88 410.13 251.21 417.51 253.65 C 432.73 256.51 442.67 275.39 435.40 289.35 C 430.15 303.42 411.19 309.28 398.64 301.37 C 384.93 294.16 381.34 273.62 391.85 262.21 C 390.56 259.43 389.35 256.62 388.30 253.75 C 386.06 256.75 383.42 259.61 382.10 263.16 C 380.14 272.29 378.47 281.49 376.38 290.58 C 375.62 294.03 370.23 292.22 370.84 289.03 C 370.97 282.82 371.57 276.61 371.38 270.38 C 368.33 272.20 365.15 273.82 361.84 275.12 C 361.29 279.03 362.05 283.12 360.59 286.88 C 358.44 293.52 353.70 299.41 347.28 302.30 C 337.87 307.01 325.67 305.20 318.08 297.91 C 308.14 289.02 307.24 272.04 316.15 262.14 C 320.77 256.66 327.66 253.04 334.91 253.10 C 345.70 252.38 356.27 259.51 360.02 269.56 C 364.33 268.34 368.20 266.01 371.70 263.24 C 364.23 258.64 356.58 254.34 349.02 249.89 C 345.49 247.89 342.45 244.31 342.41 240.08 C 342.35 231.69 342.35 223.29 342.41 214.89 M 358.99 236.87 C 360.07 238.23 361.62 239.08 363.02 240.06 C 369.36 244.22 375.35 248.88 381.65 253.10 C 384.71 248.90 385.94 243.75 385.92 238.62 C 380.44 238.67 374.96 238.77 369.48 238.56 C 366.48 235.00 362.80 232.12 359.34 229.04 C 359.05 231.61 358.07 234.32 358.99 236.87 M 328.75 259.81 C 320.68 262.36 315.11 270.60 315.31 278.99 C 315.21 285.38 318.44 291.65 323.61 295.37 C 329.87 300.10 338.90 300.65 345.74 296.84 C 352.73 293.15 356.69 285.06 356.24 277.28 C 348.76 279.04 341.33 281.56 333.59 281.68 C 333.29 280.48 333.13 279.26 333.10 278.03 C 333.36 276.13 335.57 276.37 336.96 275.99 C 343.00 275.10 348.89 273.44 354.80 271.91 C 351.48 261.46 338.84 255.93 328.75 259.81 M 399.11 263.18 C 401.94 267.14 404.99 271.07 409.04 273.86 C 410.98 275.31 413.21 276.45 414.79 278.33 C 415.14 280.71 411.73 282.80 409.71 281.27 C 403.95 277.56 399.00 272.70 394.87 267.26 C 389.66 274.78 390.21 285.76 396.46 292.51 C 401.53 298.41 410.16 300.76 417.56 298.46 C 422.57 296.81 427.18 293.46 429.63 288.70 C 433.41 281.77 433.09 272.39 427.69 266.37 C 424.81 263.21 421.39 260.07 417.07 259.19 C 410.91 258.10 403.72 258.37 399.11 263.18 Z" />
<path fill="#2d9a5f" opacity="1.00" d=" M 1440.99 242.02 C 1441.18 232.13 1440.43 222.17 1441.93 212.35 C 1442.45 223.55 1441.76 234.78 1442.00 246.00 C 1441.95 272.71 1442.13 299.44 1441.90 326.15 L 1441.53 325.04 C 1440.35 317.06 1441.28 308.98 1441.02 300.95 C 1441.01 281.31 1441.03 261.66 1440.99 242.02 Z" />
<path fill="#77f2f0" opacity="1.00" d=" M 358.99 236.87 C 358.07 234.32 359.05 231.61 359.34 229.04 C 362.80 232.12 366.48 235.00 369.48 238.56 C 374.96 238.77 380.44 238.67 385.92 238.62 C 385.94 243.75 384.71 248.90 381.65 253.10 C 375.35 248.88 369.36 244.22 363.02 240.06 C 361.62 239.08 360.07 238.23 358.99 236.87 Z" />
<path fill="#3e5c86" opacity="1.00" d=" M 396.13 233.09 C 404.12 232.93 412.13 233.21 420.14 232.99 C 420.76 233.69 421.38 234.40 422.02 235.10 C 421.10 239.97 419.53 244.67 418.34 249.47 C 412.05 250.08 405.63 250.32 399.37 249.52 C 396.81 247.16 396.95 243.33 395.82 240.26 C 395.27 237.94 393.61 234.83 396.13 233.09 Z" />
<path fill="#77f2f0" opacity="1.00" d=" M 328.75 259.81 C 338.84 255.93 351.48 261.46 354.80 271.91 C 348.89 273.44 343.00 275.10 336.96 275.99 C 335.57 276.37 333.36 276.13 333.10 278.03 C 333.13 279.26 333.29 280.48 333.59 281.68 C 341.33 281.56 348.76 279.04 356.24 277.28 C 356.69 285.06 352.73 293.15 345.74 296.84 C 338.90 300.65 329.87 300.10 323.61 295.37 C 318.44 291.65 315.21 285.38 315.31 278.99 C 315.11 270.60 320.68 262.36 328.75 259.81 Z" />
<path fill="#77f2f0" opacity="1.00" d=" M 399.11 263.18 C 403.72 258.37 410.91 258.10 417.07 259.19 C 421.39 260.07 424.81 263.21 427.69 266.37 C 433.09 272.39 433.41 281.77 429.63 288.70 C 427.18 293.46 422.57 296.81 417.56 298.46 C 410.16 300.76 401.53 298.41 396.46 292.51 C 390.21 285.76 389.66 274.78 394.87 267.26 C 399.00 272.70 403.95 277.56 409.71 281.27 C 411.73 282.80 415.14 280.71 414.79 278.33 C 413.21 276.45 410.98 275.31 409.04 273.86 C 404.99 271.07 401.94 267.14 399.11 263.18 Z" />
<path fill="#3e5c86" opacity="1.00" d=" M 667.07 321.96 C 675.02 291.44 704.00 268.70 734.98 265.44 C 749.77 264.42 765.32 266.20 778.36 273.73 C 785.81 277.86 792.56 283.12 798.96 288.73 C 806.37 282.14 812.93 274.59 820.96 268.72 C 820.79 291.82 821.36 314.93 821.16 338.03 C 821.08 364.41 820.88 390.79 821.20 417.17 C 813.15 411.55 806.76 403.98 799.10 397.90 C 784.64 411.83 765.10 420.51 744.98 421.17 C 715.05 422.22 685.60 404.24 672.50 377.37 C 663.66 360.43 662.28 340.31 667.07 321.96 M 733.54 285.65 C 713.69 288.24 696.39 302.55 688.83 320.89 C 683.15 334.23 683.19 349.63 687.83 363.26 C 693.25 379.25 706.63 391.90 722.32 397.75 C 734.22 402.26 747.57 402.42 759.75 398.88 C 776.70 393.88 790.53 380.33 796.99 364.01 C 802.17 351.66 801.81 337.64 798.10 324.95 C 789.51 298.83 760.75 281.11 733.54 285.65 Z" />
<path fill="#3e5c86" opacity="1.00" d=" M 988.45 265.66 C 1018.04 262.06 1049.31 276.41 1065.12 301.82 C 1081.58 328.85 1079.87 366.12 1060.05 391.00 C 1041.22 415.09 1007.53 427.05 977.92 418.43 C 948.42 410.53 924.44 384.34 920.50 353.87 C 918.37 336.61 921.09 318.32 930.38 303.41 C 942.78 282.98 964.71 268.61 988.45 265.66 M 989.45 285.59 C 966.81 288.21 947.72 306.26 941.84 327.97 C 938.85 338.03 939.54 348.78 941.84 358.91 C 946.04 375.40 958.53 389.13 973.86 396.16 C 986.15 401.93 1000.45 402.70 1013.53 399.40 C 1031.07 394.62 1045.75 380.98 1052.41 364.13 C 1057.42 351.79 1057.28 337.77 1053.55 325.10 C 1045.20 299.03 1016.51 281.26 989.45 285.59 Z" />
<path fill="#22b14c" opacity="1.00" d=" M 1305.03 272.10 C 1338.85 256.20 1383.32 269.05 1403.09 300.92 C 1370.27 330.99 1336.42 359.91 1303.04 389.36 C 1317.14 400.70 1336.87 403.36 1353.96 398.16 C 1367.99 394.02 1381.12 384.67 1387.47 371.23 C 1387.83 371.02 1388.57 370.60 1388.94 370.40 C 1394.45 373.78 1400.50 376.19 1406.12 379.43 C 1403.36 386.08 1398.29 391.39 1393.59 396.70 C 1380.96 410.17 1363.53 419.24 1345.06 420.88 C 1309.90 424.72 1274.33 401.24 1262.94 367.97 C 1260.02 359.65 1259.10 350.78 1259.19 342.01 C 1258.24 312.18 1278.30 284.18 1305.03 272.10 M 1322.93 286.75 C 1305.31 290.58 1290.34 303.80 1283.43 320.33 C 1276.45 338.11 1278.76 358.87 1288.22 375.31 C 1312.82 355.32 1336.31 334.02 1359.88 312.85 C 1365.00 307.97 1370.67 303.66 1375.47 298.45 C 1360.78 287.08 1341.07 282.43 1322.93 286.75 Z" />
<path fill="#77f2f0" opacity="1.00" d=" M 1322.93 286.75 C 1341.07 282.43 1360.78 287.08 1375.47 298.45 C 1370.67 303.66 1365.00 307.97 1359.88 312.85 C 1336.31 334.02 1312.82 355.32 1288.22 375.31 C 1278.76 358.87 1276.45 338.11 1283.43 320.33 C 1290.34 303.80 1305.31 290.58 1322.93 286.75 Z" />
<path fill="#22b14c" opacity="1.00" d=" M 804.81 488.77 C 815.19 480.42 833.41 483.41 839.03 495.97 C 831.42 493.17 824.60 486.31 815.89 488.11 C 803.91 489.69 796.73 504.45 801.81 515.11 C 805.17 521.77 812.47 526.62 820.07 525.98 C 827.73 525.57 834.76 520.79 838.28 514.02 C 831.62 513.77 824.94 513.46 818.37 512.39 C 818.33 512.15 818.26 511.67 818.23 511.43 C 823.95 508.50 830.62 508.26 836.91 508.77 C 839.14 509.10 841.37 508.08 843.58 508.73 C 844.12 511.23 842.29 513.20 841.33 515.31 C 838.36 521.73 832.77 526.86 826.14 529.32 C 817.57 532.49 807.12 529.72 801.35 522.61 C 793.28 512.91 794.11 496.25 804.81 488.77 Z" />
<path fill="#3e5c86" opacity="1.00" d=" M 967.85 485.43 C 976.25 484.67 985.72 483.80 992.98 488.99 C 999.94 494.47 1002.49 503.88 1002.50 512.40 C 1002.60 511.65 1002.81 510.16 1002.91 509.41 C 1007.00 506.90 1010.13 502.61 1015.00 501.56 C 1020.53 500.92 1025.26 504.47 1030.03 506.69 C 1025.10 513.65 1018.06 518.63 1012.43 524.94 C 1016.98 525.86 1021.91 526.73 1025.20 530.35 C 1020.38 531.71 1014.86 531.33 1010.80 528.20 C 1007.22 525.18 1003.67 521.87 1001.80 517.49 C 997.19 520.23 993.97 524.82 989.08 527.13 C 984.29 529.69 978.76 530.16 973.43 529.91 C 973.08 517.63 974.21 505.34 973.31 493.08 C 973.05 489.72 969.92 487.72 967.85 485.43 M 977.33 526.23 C 982.48 525.64 987.70 524.14 991.79 520.80 C 998.21 515.81 1000.07 505.96 996.01 498.94 C 992.34 492.20 984.89 488.38 977.47 487.52 C 977.17 500.42 977.33 513.32 977.33 526.23 M 1009.26 510.21 C 1006.42 513.53 1006.71 518.14 1007.24 522.19 C 1013.81 517.71 1019.64 512.23 1025.04 506.42 C 1019.64 504.50 1012.89 505.49 1009.26 510.21 Z" />
<path fill="#3e5c86" opacity="1.00" d=" M 1032.75 485.88 C 1034.46 487.24 1036.47 488.39 1037.71 490.26 C 1038.21 494.54 1036.54 498.76 1036.79 503.07 C 1037.08 511.79 1036.97 520.52 1037.00 529.24 C 1035.58 529.22 1034.17 529.19 1032.77 529.18 C 1032.85 514.75 1032.70 500.31 1032.75 485.88 Z" />
<path fill="#3e5c86" opacity="1.00" d=" M 1039.74 492.61 C 1041.30 492.92 1042.89 493.23 1044.49 493.50 C 1044.31 494.31 1043.95 495.92 1043.77 496.73 C 1042.41 496.93 1041.06 497.14 1039.73 497.37 C 1039.73 495.78 1039.73 494.19 1039.74 492.61 Z" />
<path fill="#3e5c86" opacity="1.00" d=" M 1057.42 518.41 C 1062.29 512.16 1063.84 503.72 1069.83 498.17 C 1069.00 509.72 1063.18 520.04 1057.52 529.86 C 1053.77 523.42 1052.32 515.96 1048.53 509.55 C 1046.72 506.93 1047.18 503.67 1047.22 500.68 C 1048.52 501.34 1050.23 501.69 1050.74 503.28 C 1053.21 508.21 1055.24 513.35 1057.42 518.41 Z" />
<path fill="#3e5c86" opacity="1.00" d=" M 1040.46 500.32 C 1042.00 500.62 1043.54 500.90 1045.11 501.18 C 1045.47 506.43 1044.93 511.67 1044.50 516.89 C 1044.04 521.70 1044.71 526.61 1043.49 531.35 C 1041.67 529.44 1041.30 526.72 1040.75 524.26 C 1039.33 516.35 1040.39 508.29 1040.46 500.32 Z" />
<path fill="#3e5c86" opacity="1.00" d=" M 1119.36 499.66 C 1121.05 503.17 1120.60 507.22 1120.95 511.01 C 1121.00 516.17 1121.82 521.34 1124.07 526.02 C 1127.73 526.77 1132.05 525.39 1133.49 521.66 C 1136.01 514.76 1134.66 507.29 1135.13 500.13 C 1136.94 501.98 1139.12 504.06 1138.91 506.92 C 1138.87 515.62 1139.00 524.32 1138.82 533.01 C 1138.59 536.69 1138.48 540.97 1135.57 543.64 C 1130.02 548.43 1120.16 546.74 1117.00 539.95 C 1122.05 540.43 1127.87 544.15 1132.50 540.51 C 1134.48 536.98 1134.63 532.81 1135.25 528.90 C 1129.86 529.62 1122.11 531.90 1118.97 525.85 C 1115.48 517.63 1115.89 507.83 1119.36 499.66 Z" />
<path fill="#22b14c" opacity="1.00" d=" M 844.79 505.20 C 848.93 502.94 853.50 501.74 858.00 500.46 C 858.23 502.08 858.48 503.71 858.75 505.34 C 855.83 506.20 852.95 507.18 850.09 508.20 C 849.37 514.80 849.09 521.44 848.58 528.06 C 848.53 529.20 848.16 530.30 847.68 531.33 C 843.41 523.26 845.06 513.93 844.79 505.20 Z" />
<path fill="#3e5c86" opacity="1.00" d=" M 1099.82 505.01 C 1104.08 502.93 1108.70 501.77 1113.27 500.57 C 1113.48 502.19 1113.73 503.81 1114.01 505.43 C 1111.06 506.18 1108.14 507.01 1105.23 507.85 C 1104.59 513.92 1104.28 520.02 1103.88 526.12 C 1103.59 527.85 1103.95 529.95 1102.55 531.28 C 1098.98 523.00 1099.70 513.80 1099.82 505.01 Z" />
<path fill="#22b14c" opacity="1.00" d=" M 863.29 523.66 C 858.03 515.88 862.67 503.35 872.09 501.56 C 878.30 500.35 883.42 504.77 888.01 508.24 C 883.45 511.18 880.05 515.50 876.05 519.10 C 874.04 521.38 871.19 523.20 869.97 526.00 C 870.25 526.18 870.82 526.55 871.10 526.73 C 876.98 525.46 882.87 523.35 887.52 519.40 C 888.71 520.83 889.66 522.43 890.60 524.05 C 885.94 526.48 881.36 529.54 876.04 530.24 C 870.90 530.98 866.12 527.70 863.29 523.66 M 870.95 506.87 C 865.35 509.49 862.99 516.53 865.05 522.21 C 871.39 517.44 877.64 512.42 882.73 506.30 C 878.86 505.40 874.58 504.83 870.95 506.87 Z" />
<path fill="#22b14c" opacity="1.00" d=" M 889.69 519.02 C 888.97 512.27 892.33 504.41 899.04 501.95 C 905.46 499.98 911.29 504.19 916.67 507.06 C 910.42 513.75 903.26 519.58 897.65 526.86 C 902.53 526.24 907.28 524.79 911.73 522.69 C 913.80 521.73 915.68 520.21 918.02 519.98 C 915.57 527.66 906.30 532.57 898.72 529.24 C 894.61 527.16 890.92 523.54 889.69 519.02 M 895.30 510.36 C 892.75 513.36 893.00 517.51 893.34 521.18 C 894.47 520.82 895.68 520.53 896.65 519.76 C 902.02 515.80 907.19 511.46 911.32 506.18 C 905.76 504.78 899.04 505.61 895.30 510.36 Z" />
<path fill="#22b14c" opacity="1.00" d=" M 918.47 504.19 C 924.02 502.47 930.47 500.05 936.00 503.13 C 940.42 505.70 941.00 511.36 941.04 515.97 C 940.89 521.06 941.32 526.37 939.59 531.25 C 934.25 524.55 939.62 515.11 934.59 508.38 C 931.75 504.50 924.80 506.35 923.97 510.98 C 922.21 517.95 924.55 525.79 920.50 532.20 C 918.56 522.98 919.22 513.52 918.47 504.19 Z" />
<path fill="#3e5c86" opacity="1.00" d=" M 1071.01 512.08 C 1072.62 506.39 1077.77 501.24 1083.98 501.44 C 1089.29 501.27 1093.28 505.22 1097.42 507.94 C 1091.41 514.15 1084.10 519.16 1079.25 526.44 C 1086.01 525.73 1092.31 523.04 1098.86 521.40 C 1095.83 528.12 1087.63 531.85 1080.60 529.58 C 1073.53 527.43 1068.74 519.24 1071.01 512.08 M 1078.49 507.56 C 1073.95 510.85 1074.42 517.14 1074.41 522.11 C 1080.89 517.63 1086.83 512.42 1092.13 506.60 C 1087.60 506.58 1082.72 505.47 1078.49 507.56 Z" />
<path fill="#3e5c86" opacity="1.00" d=" M 375.04 514.51 C 384.22 513.38 393.48 514.05 402.68 513.19 C 397.46 529.28 381.70 539.16 365.88 542.67 C 378.89 543.56 391.92 542.53 404.94 543.02 C 407.26 543.07 409.67 543.02 411.84 542.04 C 427.56 535.33 443.36 528.78 459.12 522.13 C 466.17 520.66 473.54 521.62 480.70 521.91 C 470.45 533.55 458.85 543.97 446.93 553.87 C 437.71 561.23 428.18 568.53 417.19 573.05 C 411.28 575.59 404.80 576.03 398.60 577.48 C 392.77 578.62 386.95 580.13 380.99 580.26 C 349.57 580.20 318.15 580.27 286.74 580.22 C 286.75 566.87 286.73 553.52 286.75 540.17 C 299.13 530.14 312.36 520.26 327.97 516.04 C 334.95 515.19 342.02 515.76 349.05 515.71 C 357.73 515.86 366.37 514.86 375.04 514.51 Z" />
<path fill="#3e5c86" opacity="1.00" d=" M 219.75 539.99 C 241.48 539.76 263.22 539.95 284.96 539.89 C 284.96 553.34 284.96 566.78 284.96 580.23 C 263.24 580.20 241.52 580.33 219.80 580.14 C 219.85 566.76 219.94 553.37 219.75 539.99 Z" />
</svg>
