<?xml version="1.0" encoding="UTF-8" ?>
<!DOCTYPE svg PUBLIC "-//W3C//DTD SVG 1.1//EN" "http://www.w3.org/Graphics/SVG/1.1/DTD/svg11.dtd">
<svg width="424pt" height="825pt" viewBox="0 0 424 825" version="1.1" xmlns="http://www.w3.org/2000/svg">
<path fill="#eeeef0" opacity="1.00" d=" M 78.79 0.00 L 346.54 0.00 C 360.32 2.37 374.19 8.67 382.44 20.38 C 383.45 25.95 387.24 30.45 388.47 35.94 C 389.50 40.25 390.45 44.63 390.54 49.08 C 390.65 50.66 389.08 51.65 388.41 52.92 C 387.53 47.73 387.32 42.05 383.92 37.73 C 381.20 33.54 379.25 28.86 376.13 24.92 C 373.40 21.36 369.75 18.70 366.74 15.40 C 363.94 11.49 359.09 10.12 354.78 8.59 C 347.12 5.94 338.94 6.64 330.98 6.58 C 248.33 6.59 165.67 6.58 83.01 6.58 C 76.76 6.56 70.63 8.14 64.89 10.51 C 65.49 10.57 66.70 10.69 67.30 10.75 C 63.28 13.23 59.08 15.45 55.33 18.34 C 45.51 26.60 38.89 38.98 39.01 51.97 C 38.99 267.64 39.01 483.31 39.00 698.97 C 38.73 705.63 40.92 711.95 42.42 718.33 C 42.30 725.81 49.15 730.47 52.90 736.20 C 44.32 730.62 38.47 721.58 34.98 712.11 C 31.97 703.14 32.27 693.59 32.00 684.27 C 33.33 684.11 34.65 683.93 35.97 683.72 C 36.53 679.60 36.56 675.43 36.00 671.32 C 34.25 671.07 32.49 670.81 30.74 670.58 C 30.48 545.40 30.77 420.21 30.60 295.03 C 30.60 292.56 30.71 290.09 30.89 287.63 C 31.85 277.78 31.16 267.88 31.35 258.01 C 31.19 248.73 31.86 239.41 30.85 230.15 C 30.53 226.30 30.51 222.42 30.86 218.57 C 31.91 208.06 31.11 197.48 31.34 186.94 C 31.23 178.34 31.77 169.72 30.88 161.15 C 30.19 149.85 31.18 138.52 30.28 127.24 C 30.91 124.19 31.52 121.11 31.45 117.99 C 31.29 110.71 31.68 103.40 30.77 96.15 C 30.64 85.91 30.61 75.65 30.86 65.41 C 32.56 65.17 34.26 64.92 35.96 64.69 C 36.53 60.58 36.54 56.42 36.01 52.30 C 34.31 52.07 32.60 51.84 30.90 51.62 C 31.08 33.00 42.44 15.41 58.68 6.59 C 64.86 3.06 71.87 1.42 78.79 0.00 Z" />
<path fill="#d5d5d7" opacity="1.00" d=" M 64.89 10.51 C 70.63 8.14 76.76 6.56 83.01 6.58 C 165.67 6.58 248.33 6.59 330.98 6.58 C 338.94 6.64 347.12 5.94 354.78 8.59 C 359.09 10.12 363.94 11.49 366.74 15.40 C 359.71 10.82 351.51 7.81 343.08 7.52 C 256.05 7.52 169.02 7.54 82.00 7.51 C 76.91 7.45 72.02 9.03 67.30 10.75 C 66.70 10.69 65.49 10.57 64.89 10.51 Z" />
<path fill="#f8f8f8" opacity="1.00" d=" M 67.30 10.75 C 72.02 9.03 76.91 7.45 82.00 7.51 C 169.02 7.54 256.05 7.52 343.08 7.52 C 351.51 7.81 359.71 10.82 366.74 15.40 C 369.75 18.70 373.40 21.36 376.13 24.92 C 379.25 28.86 381.20 33.54 383.92 37.73 C 384.96 42.42 385.89 47.17 386.01 51.99 C 385.99 244.67 386.00 437.36 386.00 630.05 C 386.23 640.61 385.49 651.20 386.44 661.74 C 384.34 661.78 382.25 661.84 380.16 661.89 C 379.76 613.27 380.12 564.63 380.00 516.00 C 380.00 384.67 380.00 253.34 380.01 122.01 C 379.91 109.74 380.25 97.46 379.84 85.19 C 376.60 85.03 373.35 84.89 370.10 84.90 C 369.91 73.60 370.69 62.25 369.27 51.01 C 368.66 46.27 368.34 41.26 365.91 37.03 C 360.62 29.27 352.28 23.38 342.80 22.32 C 334.21 21.56 325.60 20.66 316.96 20.88 C 243.96 21.06 170.96 20.83 97.96 20.94 C 88.00 22.02 77.25 21.02 68.29 26.31 C 61.41 29.95 57.56 37.25 55.37 44.42 C 51.98 57.66 53.25 71.42 52.94 84.93 C 52.90 85.60 52.82 86.93 52.77 87.60 C 52.27 92.07 52.19 96.57 52.28 101.07 C 52.29 280.72 52.29 460.37 52.28 640.02 C 52.21 645.49 52.10 650.98 52.74 656.43 C 52.88 658.22 53.07 660.01 53.25 661.81 C 52.73 663.19 52.73 664.55 53.24 665.89 L 53.91 665.93 C 54.39 665.95 55.36 665.99 55.84 666.01 C 55.66 678.38 55.50 690.85 57.84 703.05 C 59.77 713.05 68.59 721.06 78.60 722.55 C 86.69 723.70 94.87 724.40 103.05 724.25 C 133.05 724.09 163.04 724.32 193.04 724.12 C 196.89 724.11 200.66 724.96 204.41 725.75 C 211.81 727.58 219.74 727.16 226.66 723.83 C 251.45 724.63 276.27 723.97 301.08 724.21 C 316.07 724.05 331.22 725.06 346.03 722.16 C 352.64 720.89 358.42 716.62 362.00 710.98 C 365.67 705.16 366.07 698.10 366.68 691.44 C 367.58 682.99 367.15 674.48 367.15 666.00 C 373.58 665.95 380.01 665.94 386.44 666.29 C 385.24 679.46 386.71 692.73 385.63 705.90 C 383.27 727.27 363.53 744.98 342.02 744.97 C 261.36 744.95 180.69 744.99 100.02 744.97 C 89.56 744.72 78.69 746.18 68.68 742.34 C 57.06 738.32 48.19 728.95 42.42 718.33 C 40.92 711.95 38.73 705.63 39.00 698.97 C 39.01 483.31 38.99 267.64 39.01 51.97 C 38.89 38.98 45.51 26.60 55.33 18.34 C 59.08 15.45 63.28 13.23 67.30 10.75 Z" />
<path fill="#f0f0f0" opacity="1.00" d=" M 68.29 26.31 C 77.25 21.02 88.00 22.02 97.96 20.94 C 170.96 20.83 243.96 21.06 316.96 20.88 C 325.60 20.66 334.21 21.56 342.80 22.32 C 352.28 23.38 360.62 29.27 365.91 37.03 C 368.34 41.26 368.66 46.27 369.27 51.01 C 370.69 62.25 369.91 73.60 370.10 84.90 C 320.40 85.14 270.70 84.92 221.00 85.01 C 164.98 84.96 108.96 85.09 52.94 84.93 C 53.25 71.42 51.98 57.66 55.37 44.42 C 57.56 37.25 61.41 29.95 68.29 26.31 M 212.31 26.41 C 209.80 27.43 209.16 31.04 211.20 32.83 C 213.18 35.14 217.39 33.84 217.91 30.89 C 218.76 27.80 215.14 24.95 212.31 26.41 M 153.31 47.37 C 147.98 48.83 147.54 57.30 152.62 59.35 C 156.89 61.58 162.69 57.92 161.93 53.00 C 161.93 48.76 157.14 45.95 153.31 47.37 M 186.27 51.30 C 183.83 52.64 185.29 56.36 187.97 55.90 C 204.29 56.14 220.63 55.94 236.96 56.02 C 239.04 56.10 242.33 55.98 241.98 53.03 C 241.25 50.38 238.04 51.20 236.00 50.95 C 219.43 51.24 202.81 50.58 186.27 51.30 Z" />
<path fill="#dadadd" opacity="1.00" d=" M 388.47 35.94 C 387.24 30.45 383.45 25.95 382.44 20.38 C 389.86 29.95 394.04 41.90 394.03 54.02 C 394.16 89.78 394.21 125.54 394.14 161.30 C 393.94 180.44 393.87 199.58 394.18 218.72 C 394.16 379.14 394.19 539.57 394.16 699.99 C 394.14 708.14 392.13 716.13 388.89 723.58 C 385.15 729.43 381.41 735.46 376.04 739.98 C 365.94 748.92 352.45 753.94 338.94 753.36 C 253.28 753.33 167.62 753.40 81.96 753.32 C 68.83 753.06 56.26 747.08 46.90 738.03 C 42.55 733.80 39.45 728.53 36.10 723.53 C 35.63 722.42 35.16 721.32 34.71 720.21 C 34.84 719.67 35.11 718.57 35.24 718.02 C 40.58 728.37 48.73 737.54 59.29 742.72 C 66.40 746.03 73.99 749.01 81.98 748.77 C 168.33 748.79 254.69 748.75 341.04 748.78 C 346.96 748.93 352.75 747.37 358.18 745.13 C 373.08 739.68 385.20 727.05 389.92 711.90 C 392.72 703.15 392.84 693.82 392.65 684.72 C 391.24 684.21 389.83 683.71 388.43 683.21 C 388.20 679.39 388.21 675.57 388.43 671.76 C 389.82 671.27 391.22 670.78 392.62 670.31 C 392.87 564.22 392.64 458.13 392.72 352.04 C 392.67 256.59 392.90 161.15 392.63 65.70 C 391.20 65.22 389.79 64.74 388.38 64.26 C 388.25 60.48 388.35 56.70 388.41 52.92 C 389.08 51.65 390.65 50.66 390.54 49.08 C 390.45 44.63 389.50 40.25 388.47 35.94 Z" />
<path fill="#dbdcdc" opacity="1.00" d=" M 212.31 26.41 C 215.14 24.95 218.76 27.80 217.91 30.89 C 217.39 33.84 213.18 35.14 211.20 32.83 C 209.16 31.04 209.80 27.43 212.31 26.41 Z" />
<path fill="#e9e9eb" opacity="1.00" d=" M 383.92 37.73 C 387.32 42.05 387.53 47.73 388.41 52.92 C 388.35 56.70 388.25 60.48 388.38 64.26 C 389.79 64.74 391.20 65.22 392.63 65.70 C 392.90 161.15 392.67 256.59 392.72 352.04 C 392.64 458.13 392.87 564.22 392.62 670.31 C 391.22 670.78 389.82 671.27 388.43 671.76 C 388.21 675.57 388.20 679.39 388.43 683.21 C 389.83 683.71 391.24 684.21 392.65 684.72 C 392.84 693.82 392.72 703.15 389.92 711.90 C 385.20 727.05 373.08 739.68 358.18 745.13 C 352.75 747.37 346.96 748.93 341.04 748.78 C 254.69 748.75 168.33 748.79 81.98 748.77 C 73.99 749.01 66.40 746.03 59.29 742.72 C 48.73 737.54 40.58 728.37 35.24 718.02 C 35.11 718.57 34.84 719.67 34.71 720.21 C 29.30 708.94 30.82 696.18 30.77 684.10 L 32.00 684.27 C 32.27 693.59 31.97 703.14 34.98 712.11 C 38.47 721.58 44.32 730.62 52.90 736.20 C 49.15 730.47 42.30 725.81 42.42 718.33 C 48.19 728.95 57.06 738.32 68.68 742.34 C 78.69 746.18 89.56 744.72 100.02 744.97 C 180.69 744.99 261.36 744.95 342.02 744.97 C 363.53 744.98 383.27 727.27 385.63 705.90 C 386.71 692.73 385.24 679.46 386.44 666.29 C 386.53 664.77 386.54 663.25 386.44 661.74 C 385.49 651.20 386.23 640.61 386.00 630.05 C 386.00 437.36 385.99 244.67 386.01 51.99 C 385.89 47.17 384.96 42.42 383.92 37.73 Z" />
<path fill="#dbdcdc" opacity="1.00" d=" M 153.31 47.37 C 157.14 45.95 161.93 48.76 161.93 53.00 C 162.69 57.92 156.89 61.58 152.62 59.35 C 147.54 57.30 147.98 48.83 153.31 47.37 Z" />
<path fill="#dbdcdc" opacity="1.00" d=" M 186.27 51.30 C 202.81 50.58 219.43 51.24 236.00 50.95 C 238.04 51.20 241.25 50.38 241.98 53.03 C 242.33 55.98 239.04 56.10 236.96 56.02 C 220.63 55.94 204.29 56.14 187.97 55.90 C 185.29 56.36 183.83 52.64 186.27 51.30 Z" />
<path fill="#e0e0e1" opacity="1.00" d=" M 30.90 51.62 C 32.60 51.84 34.31 52.07 36.01 52.30 C 36.54 56.42 36.53 60.58 35.96 64.69 C 34.26 64.92 32.56 65.17 30.86 65.41 C 30.97 60.81 30.88 56.21 30.90 51.62 Z" />
<path fill="#ffffff" opacity="1.00" d=" M 52.94 84.93 C 108.96 85.09 164.98 84.96 221.00 85.01 C 270.70 84.92 320.40 85.14 370.10 84.90 C 373.35 84.89 376.60 85.03 379.84 85.19 C 380.25 97.46 379.91 109.74 380.01 122.01 C 380.00 253.34 380.00 384.67 380.00 516.00 C 380.12 564.63 379.76 613.27 380.16 661.89 C 382.25 661.84 384.34 661.78 386.44 661.74 C 386.54 663.25 386.53 664.77 386.44 666.29 C 380.01 665.94 373.58 665.95 367.15 666.00 C 263.38 666.01 159.61 665.98 55.84 666.01 C 55.36 665.99 54.39 665.95 53.91 665.93 C 54.75 664.57 53.97 663.00 53.25 661.81 C 53.07 660.01 52.88 658.22 52.74 656.43 C 52.58 517.29 52.71 378.15 52.68 239.01 C 52.74 188.54 52.53 138.07 52.77 87.60 C 52.82 86.93 52.90 85.60 52.94 84.93 Z" />
<path fill="#bfbfc4" opacity="1.00" d=" M 52.28 101.07 C 52.19 96.57 52.27 92.07 52.77 87.60 C 52.53 138.07 52.74 188.54 52.68 239.01 C 52.71 378.15 52.58 517.29 52.74 656.43 C 52.10 650.98 52.21 645.49 52.28 640.02 C 52.29 460.37 52.29 280.72 52.28 101.07 Z" />
<path fill="#dcdcdd" opacity="1.00" d=" M 28.86 110.02 C 29.07 105.38 27.83 100.19 30.77 96.15 C 31.68 103.40 31.29 110.71 31.45 117.99 C 31.52 121.11 30.91 124.19 30.28 127.24 C 27.85 121.79 29.10 115.77 28.86 110.02 Z" />
<path fill="#dcdcdd" opacity="1.00" d=" M 27.82 169.99 C 27.86 166.75 27.22 162.69 30.88 161.15 C 31.77 169.72 31.23 178.34 31.34 186.94 C 31.11 197.48 31.91 208.06 30.86 218.57 C 29.87 218.03 28.90 217.46 27.95 216.86 C 27.65 201.24 27.99 185.61 27.82 169.99 Z" />
<path fill="#bfbfc4" opacity="1.00" d=" M 394.14 161.30 C 397.89 162.68 397.03 166.81 397.11 169.99 C 396.96 185.03 397.24 200.08 397.01 215.11 C 397.32 217.02 395.34 217.70 394.18 218.72 C 393.87 199.58 393.94 180.44 394.14 161.30 Z" />
<path fill="#dcdcdd" opacity="1.00" d=" M 27.82 239.99 C 27.96 236.50 26.91 231.93 30.85 230.15 C 31.86 239.41 31.19 248.73 31.35 258.01 C 31.16 267.88 31.85 277.78 30.89 287.63 C 29.90 287.06 28.92 286.45 27.98 285.80 C 27.58 270.54 27.98 255.26 27.82 239.99 Z" />
<path fill="#9ed8fd" opacity="1.00" d=" M 53.25 661.81 C 53.97 663.00 54.75 664.57 53.91 665.93 L 53.24 665.89 C 52.73 664.55 52.73 663.19 53.25 661.81 Z" />
<path fill="#f0f0f0" opacity="1.00" d=" M 55.84 666.01 C 159.61 665.98 263.38 666.01 367.15 666.00 C 367.15 674.48 367.58 682.99 366.68 691.44 C 366.07 698.10 365.67 705.16 362.00 710.98 C 358.42 716.62 352.64 720.89 346.03 722.16 C 331.22 725.06 316.07 724.05 301.08 724.21 C 276.27 723.97 251.45 724.63 226.66 723.83 C 234.46 719.05 240.68 711.20 241.81 701.93 C 242.50 695.25 241.83 687.38 236.40 682.71 C 237.35 688.13 239.45 693.44 238.92 699.03 C 238.33 709.09 231.51 718.37 222.18 722.11 C 216.58 724.75 210.17 723.69 204.41 725.75 C 200.66 724.96 196.89 724.11 193.04 724.12 C 163.04 724.32 133.05 724.09 103.05 724.25 C 94.87 724.40 86.69 723.70 78.60 722.55 C 68.59 721.06 59.77 713.05 57.84 703.05 C 55.50 690.85 55.66 678.38 55.84 666.01 M 205.02 668.88 C 192.09 671.92 182.22 684.69 182.96 698.02 C 183.29 703.01 184.15 709.11 188.69 712.08 C 187.47 706.41 185.26 700.78 186.16 694.88 C 187.22 684.71 194.57 675.57 204.28 672.36 C 209.33 670.36 214.86 670.92 220.10 669.88 C 215.37 667.85 209.99 667.77 205.02 668.88 Z" />
<path fill="#d5d5d7" opacity="1.00" d=" M 205.02 668.88 C 209.99 667.77 215.37 667.85 220.10 669.88 C 214.86 670.92 209.33 670.36 204.28 672.36 C 194.57 675.57 187.22 684.71 186.16 694.88 C 185.26 700.78 187.47 706.41 188.69 712.08 C 184.15 709.11 183.29 703.01 182.96 698.02 C 182.22 684.69 192.09 671.92 205.02 668.88 Z" />
<path fill="#e0e0e1" opacity="1.00" d=" M 30.74 670.58 C 32.49 670.81 34.25 671.07 36.00 671.32 C 36.56 675.43 36.53 679.60 35.97 683.72 C 34.65 683.93 33.33 684.11 32.00 684.27 L 30.77 684.10 C 30.81 679.59 30.80 675.08 30.74 670.58 Z" />
<path fill="#d5d5d7" opacity="1.00" d=" M 236.40 682.71 C 241.83 687.38 242.50 695.25 241.81 701.93 C 240.68 711.20 234.46 719.05 226.66 723.83 C 219.74 727.16 211.81 727.58 204.41 725.75 C 210.17 723.69 216.58 724.75 222.18 722.11 C 231.51 718.37 238.33 709.09 238.92 699.03 C 239.45 693.44 237.35 688.13 236.40 682.71 Z" />
</svg>
